# xmcd CD database file
#
# Track frame offsets:
#	150
#	12770
#	26267
#	37677
#	50335
#	61917
#	74322
#	86132
#	98670
#	111170
#	122110
#	134795
#	146785
#	159270
#	169577
#	181427
#	193395
#	203587
#	217572
#	230965
#
# Disc length: 3241 seconds
#
# Revision: 0
# Processed by: cddbd v1.5.2PL0 Copyright (c) Steve Scherf et al.
# Submitted via: CDex 1.51
#
DISCID=140ca714
DTITLE=Champion Jack Dupree - The Gamblin' Man
DYEAR=1998
DGENRE=Blues
TTITLE0=Gamblin' Man Blues
TTITLE1=Cabbage Greens N# 1
TTITLE2=Chain Gang Blues
TTITLE3=Black Woman Swing
TTITLE4=That's All Right
TTITLE5=Junker Blues
TTITLE6=Big Time Mam
TTITLE7=Morning Tea
TTITLE8=All Alone Blues
TTITLE9=Let's Have A Ball
TTITLE10=Rum Cola Blues
TTITLE11=F.D.R. Blues
TTITLE12=Outside Man
TTITLE13=Santa Claus Blues
TTITLE14=You've Been Drunk
TTITLE15=I'm A Doctor For Women
TTITLE16=Fifith Avenue Woman
TTITLE17=Highway 31
TTITLE18=Àuto Mechanic Blues
TTITLE19=Dollar Bill
EXTD=YEAR: 1998
EXTT0=
EXTT1=
EXTT2=
EXTT3=
EXTT4=
EXTT5=
EXTT6=
EXTT7=
EXTT8=
EXTT9=
EXTT10=
EXTT11=
EXTT12=
EXTT13=
EXTT14=
EXTT15=
EXTT16=
EXTT17=
EXTT18=
EXTT19=
PLAYORDER=
